<?xml version="1.0" encoding="UTF-8" standalone="no"?>
<!-- Created with Inkscape (http://www.inkscape.org/) -->

<svg
   xmlns:dc="http://purl.org/dc/elements/1.1/"
   xmlns:cc="http://creativecommons.org/ns#"
   xmlns:rdf="http://www.w3.org/1999/02/22-rdf-syntax-ns#"
   xmlns:svg="http://www.w3.org/2000/svg"
   xmlns="http://www.w3.org/2000/svg"
   xmlns:sodipodi="http://sodipodi.sourceforge.net/DTD/sodipodi-0.dtd"
   xmlns:inkscape="http://www.inkscape.org/namespaces/inkscape"
   width="64"
   height="64"
   viewBox="0 0 16.933333 16.933334"
   version="1.1"
   id="svg8"
   inkscape:version="0.92.4 5da689c313, 2019-01-14"
   sodipodi:docname="logo.svg">
  <defs
     id="defs2" />
  <sodipodi:namedview
     id="base"
     pagecolor="#ffffff"
     bordercolor="#666666"
     borderopacity="1.0"
     inkscape:pageopacity="0.0"
     inkscape:pageshadow="2"
     inkscape:zoom="11.2"
     inkscape:cx="32.0518"
     inkscape:cy="29.061427"
     inkscape:document-units="mm"
     inkscape:current-layer="layer1"
     showgrid="false"
     units="px"
     inkscape:window-width="1920"
     inkscape:window-height="1025"
     inkscape:window-x="1920"
     inkscape:window-y="0"
     inkscape:window-maximized="1" />
  <metadata
     id="metadata5">
    <rdf:RDF>
      <cc:Work
         rdf:about="">
        <dc:format>image/svg+xml</dc:format>
        <dc:type
           rdf:resource="http://purl.org/dc/dcmitype/StillImage" />
        <dc:title></dc:title>
      </cc:Work>
    </rdf:RDF>
  </metadata>
  <g
     inkscape:label="Layer 1"
     inkscape:groupmode="layer"
     id="layer1"
     transform="translate(0,-280.06665)">
    <g
       id="g933"
       transform="translate(-0.13245544)">
      <path
         style="fill:#e4c192;fill-opacity:1;stroke:none;stroke-width:0.26458332px;stroke-linecap:butt;stroke-linejoin:miter;stroke-opacity:1"
         d="m 3.5356074,282.15489 c -0.014451,-3e-5 -0.028125,0.003 -0.040307,0.009 -0.1752541,0.0903 -0.2954321,0.73413 -0.3896405,1.56476 -0.1579993,0.92464 -0.2766663,2.1206 -0.3875731,3.06544 -0.127551,1.08665 -0.2960848,2.29667 -0.2299601,3.44837 -0.1270051,2.55757 0.5919922,4.95746 5.7789754,4.81986 0.1144706,-0.003 0.2211744,-0.0104 0.3317626,-0.0155 0.1106699,0.005 0.2172041,0.0125 0.3317626,0.0155 5.1869837,0.1376 5.9064967,-2.26229 5.7794917,-4.81986 0.06612,-1.1517 -0.102408,-2.36172 -0.22996,-3.44837 -0.11093,-0.94504 -0.230041,-2.14124 -0.38809,-3.06596 -0.0942,-0.83035 -0.213908,-1.47398 -0.389124,-1.56424 -0.07543,-0.0389 -0.196746,0.0492 -0.342098,0.2129 -0.602456,0.40463 -1.521245,2.3654 -1.674316,2.69803 -0.994198,-0.59777 -2.014578,-0.98604 -3.0876663,-0.97772 -1.0729947,-0.008 -2.0930314,0.38 -3.0871501,0.97772 -0.1530704,-0.33263 -1.0718601,-2.2934 -1.6743164,-2.69803 -0.121884,-0.1373 -0.2267662,-0.22204 -0.3017903,-0.22221 z"
         id="path927"
         inkscape:connector-curvature="0" />
      <path
         inkscape:connector-curvature="0"
         id="path840"
         d="m 4.6879968,289.26092 c -0.1414166,0.009 -0.2846601,0.0427 -0.4273639,0.0853 -0.5657948,0.12969 -1.2158605,0.55774 -1.7750856,1.00045 -0.095351,2.35839 0.5711301,4.55506 4.8601685,4.71238 0.2901645,0.0106 0.5972042,0.0117 0.9213908,0.003 0.1144706,-0.003 0.2211744,-0.0104 0.3317626,-0.0155 0.1106699,0.005 0.2172041,0.0125 0.3317626,0.0155 0.3241866,0.009 0.6307058,0.008 0.9208741,-0.003 4.2890951,-0.15732 4.9565401,-2.35399 4.8612021,-4.71238 -0.559756,-0.44315 -1.210982,-0.8717 -1.777153,-1.00097 -0.142227,-0.0423 -0.284354,-0.0753 -0.425297,-0.0847 -1.279234,-0.0856 -3.670161,1.5692 -3.9113888,1.7384 -0.241228,-0.1692 -2.6316376,-1.82402 -3.9108724,-1.7384 z"
         style="fill:#f8eee0;fill-opacity:1;stroke:none;stroke-width:0.26458332px;stroke-linecap:butt;stroke-linejoin:miter;stroke-opacity:1" />
      <path
         sodipodi:nodetypes="zszsz"
         inkscape:connector-curvature="0"
         id="path842"
         d="m 10.07671,290.45627 c -5e-6,0.66925 -0.6610398,0.82682 -1.4764694,0.82682 -0.8154296,0 -1.4292175,-0.0867 -1.4764695,-0.82682 -0.047252,-0.74012 0.6610329,-0.82683 1.4764695,-0.82683 0.8154366,0 1.4764744,0.15758 1.4764694,0.82683 z"
         style="opacity:1;fill:#25231f;fill-opacity:1;stroke:none;stroke-width:0.26458332" />
    </g>
    <path
       style="opacity:1;fill:#25231f;fill-opacity:1;stroke:none;stroke-width:0.26458332"
       d="m 5.9507678,286.26198 c 0.6692501,0 0.8268201,0.66104 0.8268201,1.47647 0,0.81543 -0.0867,1.42921 -0.8268201,1.47647 -0.74012,0.0472 -0.82683,-0.66104 -0.82683,-1.47647 0,-0.81544 0.15758,-1.47648 0.82683,-1.47647 z"
       id="path842-3"
       inkscape:connector-curvature="0"
       sodipodi:nodetypes="zszsz" />
    <path
       style="opacity:1;fill:#25231f;fill-opacity:1;stroke:none;stroke-width:0.26458332"
       d="m 10.982576,286.33285 c 0.66925,0 0.82682,0.66104 0.82682,1.47647 0,0.81543 -0.0867,1.42921 -0.82682,1.47647 -0.74012,0.0472 -0.82683,-0.66104 -0.82683,-1.47647 0,-0.81544 0.15758,-1.47648 0.82683,-1.47647 z"
       id="path842-3-6"
       inkscape:connector-curvature="0"
       sodipodi:nodetypes="zszsz" />
  </g>
</svg>
